# xmcd CD database file
#
# Track frame offsets:
#	150
#	13842
#	28036
#	45258
#	54894
#	65504
#	73655
#	88869
#	100345
#	112323
#	126221
#	137321
#	150115
#	166008
#	180596
#
# Disc length: 2575 seconds
#
# Revision: 0
# Processed by: cddbd v1.5.2PL0 Copyright (c) Steve Scherf et al.
# Submitted via: CDex 1.70beta2
#
DISCID=bb0a0d0f
DTITLE=Various Artist - The Country Box - 10
DYEAR=2007
DGENRE=Country
TTITLE0=Patti Page - Tennessee Waltz
TTITLE1=Merle Haggard - I'm A Lonesome Fugitive
TTITLE2=Lee Greenwood - One Day At A Time
TTITLE3=Faron Young - Alone With You
TTITLE4=Connie Smith - Ain't No Lovin'
TTITLE5=Don Gibson - Blue Day
TTITLE6=Jack Greene - Why Me Lord
TTITLE7=Kitty Wells - Password
TTITLE8=Red Steagall - Truck Drivin' Man
TTITLE9=Jeannie Seely - Don't Touch Me
TTITLE10=Stonewall Jackson - Waterloo
TTITLE11=Charlie Rich - Good Time Charlie's Got The Blues
TTITLE12=Johnny Lee - Lookin' For Love
TTITLE13=Kenny Price - Peace In The Valley
TTITLE14=Faron Young - Three Days
EXTD=YEAR: 2007
EXTT0=
EXTT1=
EXTT2=
EXTT3=
EXTT4=
EXTT5=
EXTT6=
EXTT7=
EXTT8=
EXTT9=
EXTT10=
EXTT11=
EXTT12=
EXTT13=
EXTT14=
PLAYORDER=
